<?xml version="1.0" encoding="UTF-8" standalone="no"?>
<!DOCTYPE svg PUBLIC "-//W3C//DTD SVG 1.1//EN" "http://www.w3.org/Graphics/SVG/1.1/DTD/svg11.dtd">
<!-- Created with Vectornator (http://vectornator.io/) -->
<svg height="100%" stroke-miterlimit="10" style="fill-rule:nonzero;clip-rule:evenodd;stroke-linecap:round;stroke-linejoin:round;" version="1.1" viewBox="0 0 1737 1768.51" width="100%" xml:space="preserve" xmlns="http://www.w3.org/2000/svg" xmlns:vectornator="http://vectornator.io" xmlns:xlink="http://www.w3.org/1999/xlink">
<defs>
<linearGradient gradientTransform="matrix(1.95257 0 0 1.95257 -316.359 -961.917)" gradientUnits="userSpaceOnUse" id="LinearGradient" x1="559.696" x2="878.756" y1="1166.77" y2="1166.77">
<stop offset="0" stop-color="#659fff"/>
<stop offset="1" stop-color="#000000"/>
</linearGradient>
</defs>
<g id="Layer-1" vectornator:layerName="Layer 1">
<g opacity="1">
<path d="M975.7 1561.74L975.7 1600.26L975.7 1623.81C975.7 1633.39 960.317 1641.16 941.342 1641.16L918.827 1641.16C899.852 1641.16 884.469 1633.39 884.469 1623.81L884.469 1560.8C884.469 1557.08 893.53 1558.21 908.578 1558.95C915.525 1559.29 944.508 1559.13 952.521 1559.44C971.968 1560.19 975.7 1557.58 975.7 1561.74Z" fill="#006bff" fill-rule="nonzero" opacity="1" stroke="#002665" stroke-linecap="butt" stroke-linejoin="miter" stroke-width="23.5425"/>
<path d="M1289.18 1561.74L1289.18 1600.26L1289.18 1623.81C1289.18 1633.39 1273.79 1641.16 1254.82 1641.16L1232.3 1641.16C1213.33 1641.16 1197.95 1633.39 1197.95 1623.81L1197.95 1560.8C1197.95 1557.08 1207.01 1558.21 1222.06 1558.95C1229 1559.29 1257.99 1559.13 1266 1559.44C1285.45 1560.19 1289.18 1557.58 1289.18 1561.74Z" fill="#006bff" fill-rule="nonzero" opacity="1" stroke="#002665" stroke-linecap="butt" stroke-linejoin="miter" stroke-width="23.5425"/>
<path d="M879.993 690.165L1293.65 690.165C1350.77 690.165 1397.07 754.916 1397.07 834.79L1397.07 1413.29C1397.07 1493.16 1350.77 1557.91 1293.65 1557.91L879.993 1557.91C822.879 1557.91 776.578 1493.16 776.578 1413.29L776.578 834.79C776.578 754.916 822.879 690.165 879.993 690.165Z" fill="#3883ff" fill-rule="nonzero" opacity="1" stroke="#002665" stroke-linecap="butt" stroke-linejoin="miter" stroke-width="23.5425"/>
<path d="M947.49 956.695L984.049 956.695C993.88 956.695 1001.85 964.465 1001.85 974.05L1001.85 1088.85C1001.85 1098.43 993.88 1106.2 984.049 1106.2L947.49 1106.2C937.66 1106.2 929.691 1098.43 929.691 1088.85L929.691 974.05C929.691 964.465 937.66 956.695 947.49 956.695Z" fill="#3883ff" fill-rule="nonzero" opacity="1" stroke="#ffc107" stroke-linecap="butt" stroke-linejoin="miter" stroke-width="25.5884"/>
<path d="M1399.47 1317.61L776.486 1314.96" fill="url(#LinearGradient)" fill-rule="nonzero" opacity="1" stroke="#002665" stroke-linecap="butt" stroke-linejoin="miter" stroke-width="23.5425"/>
<path d="M1191.02 960.172L1227.57 960.172C1237.41 960.172 1245.37 967.942 1245.37 977.527L1245.37 1092.32C1245.37 1101.91 1237.41 1109.68 1227.57 1109.68L1191.02 1109.68C1181.19 1109.68 1173.22 1101.91 1173.22 1092.32L1173.22 977.527C1173.22 967.942 1181.19 960.172 1191.02 960.172Z" fill="#3883ff" fill-rule="nonzero" opacity="1" stroke="#ffc107" stroke-linecap="butt" stroke-linejoin="miter" stroke-width="25.5884"/>
<path d="M1055.75 700.346L1126.02 700.346L1126.02 1315.89L1055.75 1315.89L1055.75 700.346Z" fill="#3883ff" fill-rule="nonzero" opacity="1" stroke="#002665" stroke-linecap="butt" stroke-linejoin="miter" stroke-width="23.5425"/>
</g>
<g opacity="1">
<path d="M654.285 86.166C578.282 86.166 516.668 125.359 516.669 173.706C516.669 202.663 539.951 227.529 574.009 243.464C575.162 241.23 577.449 237.309 578.31 235.258C582.897 224.315 585.476 217.475 585.477 217.476C624.469 195.591 654.285 129.936 654.285 129.936C654.286 129.937 684.102 191.214 723.093 217.476C723.093 217.476 725.672 224.316 730.26 235.258C731.12 237.309 733.408 241.23 734.561 243.464C768.618 227.529 791.901 202.663 791.9 173.706C791.9 125.359 730.288 86.1653 654.285 86.166Z" fill="#d50000" fill-rule="nonzero" opacity="1" stroke="none"/>
<path d="M654.285 129.936C654.285 129.936 624.469 195.591 585.477 217.476C585.477 224.041 585.335 232.794 587.627 239.361L585.477 239.361C585.477 243.042 583.193 243.973 582.61 246.884C603.751 255.302 627.504 261.246 654.285 261.246C681.962 261.246 706.53 255.144 728.11 246.2C726.51 241.52 723.946 239.038 723.093 232.522C723.093 228.145 723.093 224.045 723.093 217.476C684.102 191.214 654.286 129.937 654.285 129.936Z" fill="#82b1ff" fill-rule="nonzero" opacity="1" stroke="none"/>
<path d="M548.923 334.424C360.416 355.768 218.503 433.269 218.502 523.866C218.502 582.955 273.406 635.479 381.204 655.176C390.888 719.86 432.358 908.446 575.443 1015.59C635.972 1012.98 753.72 995.516 816.987 915.744C816.987 919.392 818.933 921.822 819.137 925.318C815.142 850.642 860.281 756.032 895.112 694.842C890.525 694.842 883.357 694.294 876.477 692.107C865.009 689.918 851.392 688.275 839.923 683.9C826.161 679.523 812.826 674.739 799.068 668.17C785.306 661.604 769.105 655.038 755.346 646.285C748.465 641.908 741.442 637.665 734.561 633.291C727.68 628.914 720.656 622.621 713.775 618.245C700.013 607.302 686.679 596.36 672.92 585.417C668.333 581.04 661.026 576.256 656.435 569.687C651.848 574.064 645.252 578.848 640.667 585.417C626.905 596.36 612.859 607.302 599.095 618.245C592.214 622.622 585.187 628.914 578.31 633.291C571.429 637.668 565.12 641.911 558.241 646.285C544.479 655.039 528.278 661.601 514.519 668.17C500.757 674.735 486.712 679.524 472.948 683.9C459.186 688.277 445.564 689.915 436.393 692.107C424.925 694.295 416.037 694.706 409.157 696.894C402.276 696.894 397.261 698.947 392.672 698.946C388.085 681.438 386.22 666.117 386.221 655.176C390.808 655.176 397.115 655.176 406.29 655.176C413.171 655.176 425.068 655.311 434.243 653.124C443.418 650.935 455.029 650.525 466.497 648.337C477.965 643.96 491.439 641.77 505.201 637.394C518.963 633.017 533.012 629.05 546.773 620.296C553.653 615.919 559.962 613.73 566.842 609.354C573.722 604.977 580.75 600.738 587.627 596.36C601.389 587.606 615.434 578.579 629.199 567.636C656.722 547.939 684.244 525.781 709.474 506.084C723.236 497.33 734.422 486.666 748.179 480.096C759.647 471.342 773.263 464.78 784.733 458.211C792.823 453.579 800.385 451.173 807.669 447.952C784.928 455.811 757.081 467.866 723.093 493.09C733.388 398.78 675.29 392.174 662.169 391.188C659.38 391.315 657.29 392.556 654.285 392.556L642.817 392.556C640.66 392.556 638.523 392.099 636.366 391.872C501.447 407.497 356.118 436.326 356.118 436.326C447.55 419.301 511.638 376.963 548.923 334.424Z" fill="#82b1ff" fill-rule="nonzero" opacity="1" stroke="none"/>
<path d="M586.194 248.252C584.751 258.81 582.848 268.766 581.177 283.131C581.177 287.508 581.177 291.751 581.177 296.125C581.177 298.314 581.177 300.773 581.177 302.964L581.177 305.016L581.177 307.068C583.47 313.633 587.914 320.332 594.795 326.901C601.676 333.466 610.71 337.709 619.881 339.895C624.468 342.084 628.769 342.494 635.649 344.682C637.943 344.682 640.524 344.682 642.817 344.682C645.11 344.682 649.84 344.682 652.135 344.682C661.309 344.682 672.921 342.085 684.388 339.895C693.563 337.707 702.591 333.465 709.474 326.901C716.355 320.335 720.801 313.636 723.093 307.068C725.386 298.314 725.246 289.831 725.243 281.079C723.635 268.802 723.19 258.95 722.376 248.936C702.097 256.422 679.419 261.246 654.285 261.246C629.037 261.246 606.534 255.8 586.194 248.252Z" fill="#82b1ff" fill-rule="nonzero" opacity="1" stroke="none"/>
<path d="M860.708 1005.34C867.589 1007.52 874.756 1012.04 879.344 1014.23C844.162 1047.79 802.26 1070.65 762.514 1086.04C780.137 1088.08 795.559 1092.88 814.836 1092.88C998.324 1092.88 1082.13 1016.24 1082.13 1016.24C1082.13 1016.24 984.562 1079.74 860.708 1005.34Z" fill="#82b1ff" fill-rule="nonzero" opacity="1" stroke="none"/>
<path d="M759.647 337.159C793.636 371.697 837.772 392.556 837.772 392.556C837.772 392.557 859.099 399.715 859.991 434.958C861.71 434.87 867.875 434.273 867.876 434.274C867.876 434.274 862.367 435.28 860.708 435.642C860.712 435.964 860.708 435.999 860.708 436.326C860.708 436.325 849.417 438.131 844.94 438.378C844.541 438.505 843.92 438.934 843.506 439.061C836.781 441.13 827.778 443.147 819.137 447.268C809.962 451.645 798.924 455.745 789.75 462.314C778.282 468.88 766.672 478.184 757.497 486.935C746.029 495.689 734.561 506.081 723.093 517.027C709.331 530.158 695.427 543.564 679.371 556.693C683.958 561.07 688.974 563.26 695.856 567.636C709.618 576.39 722.952 587.606 736.711 596.36C743.592 600.737 750.615 604.976 757.497 609.354C764.377 613.731 771.401 615.921 778.282 620.296C792.044 626.862 805.378 630.828 819.137 637.394C832.898 641.771 847.09 643.961 858.558 648.337C870.026 650.525 881.639 653.124 890.812 653.124C899.986 655.312 908.873 652.99 918.048 655.176C917.725 655.689 917.655 656.704 917.331 657.227C1033.28 639.455 1090.07 582.57 1090.07 525.917C1090.07 435.324 948.144 358.507 759.647 337.159Z" fill="#82b1ff" fill-rule="nonzero" opacity="1" stroke="none"/>
<path d="M791.9 385.717C761.223 382.981 715.065 381.887 654.285 388.452C654.285 388.452 734.561 388.041 723.093 493.09C805.662 431.812 860.71 436.323 860.708 436.326C860.708 399.121 837.772 392.557 837.772 392.556C837.772 392.556 822.577 388.453 791.9 385.717Z" fill="#ffc107" fill-rule="nonzero" opacity="1" stroke="none"/>
<path d="M816.987 915.744C753.72 995.516 635.972 1012.98 575.443 1015.59C579.202 1018.41 582.29 1021.79 586.194 1024.48C600.444 1034.36 616.26 1042.55 632.782 1050.47C645.287 1056.64 658.441 1061.99 672.204 1066.89C690.936 1073.33 711.102 1078.14 731.694 1081.93C741.524 1083.79 752.13 1084.83 762.514 1086.04C802.26 1070.65 844.162 1047.79 879.344 1014.23C874.756 1012.04 867.589 1007.52 860.708 1005.34C845.461 996.359 836.19 983.955 829.171 969.772C827.286 965.989 826.239 961.567 824.871 957.462C821.516 947.418 819.752 936.817 819.137 925.318C818.933 921.822 816.987 919.392 816.987 915.744Z" fill="#d50000" fill-rule="nonzero" opacity="1" stroke="none"/>
<path d="M728.11 246.2C726.127 247.022 724.428 248.178 722.376 248.936C723.19 258.95 723.635 268.802 725.243 281.079C725.246 289.831 725.386 298.314 723.093 307.068C720.801 313.636 716.355 320.335 709.474 326.901C702.591 333.465 693.563 337.707 684.388 339.895C672.921 342.085 661.309 344.682 652.135 344.682C649.84 344.682 645.11 344.682 642.817 344.682C640.524 344.682 637.943 344.682 635.649 344.682C628.769 342.494 624.468 342.084 619.881 339.895C610.71 337.709 601.676 333.466 594.795 326.901C587.914 320.332 583.47 313.633 581.177 307.068L581.177 305.016L581.177 302.964C581.177 300.773 581.177 298.314 581.177 296.125C581.177 291.751 581.177 287.508 581.177 283.131C582.848 268.766 584.751 258.81 586.194 248.252C584.959 247.793 583.82 247.366 582.61 246.884C578.343 268.198 562.541 274.206 562.541 305.016C562.541 313.77 565.121 322.248 569.709 331.004C564.847 331.431 560.893 332.555 556.09 333.056C559.188 341.687 560.057 351.203 566.842 357.677C576.018 368.615 590.208 377.1 606.263 383.665C613.142 385.856 622.318 388.316 629.199 390.504C633.785 392.691 638.23 392.556 642.817 392.556L654.285 392.556C657.29 392.556 659.38 391.315 662.169 391.188C660.675 391.076 654.285 388.452 654.285 388.452C665.366 387.255 669.282 388.493 679.371 387.768C686.733 386.391 694.648 386.797 702.307 383.665C716.071 379.294 730.26 368.619 741.728 357.677C747.491 351.077 747.892 342.948 751.046 335.792C746.725 335.348 743.229 334.123 738.861 333.74C743.448 324.986 746.028 315.824 746.029 307.068C746.029 276.787 735.107 266.665 728.11 246.2Z" fill="#263238" fill-rule="nonzero" opacity="1" stroke="none"/>
<path d="M734.561 243.464C732.462 244.446 730.297 245.294 728.11 246.2C735.107 266.665 746.029 276.787 746.029 307.068C746.028 315.824 743.448 324.986 738.861 333.74C743.229 334.123 746.725 335.348 751.046 335.792C754.167 328.711 759.647 322.614 759.647 313.907C759.648 300.773 757.783 289.97 753.196 279.027C745.742 263.024 739.554 253.147 734.561 243.464Z" fill="#263238" fill-rule="nonzero" opacity="1" stroke="none"/>
<path d="M574.009 243.464C569.014 253.148 562.828 263.024 555.374 279.027C553.081 285.593 553.367 289.56 551.073 296.125C548.781 298.314 548.923 302.827 548.923 305.016L548.923 307.068L548.923 309.119L548.923 315.958C548.922 322.215 553.952 327.097 556.09 333.056C560.893 332.555 564.847 331.431 569.709 331.004C565.121 322.248 562.541 313.77 562.541 305.016C562.541 274.206 578.343 268.198 582.61 246.884C579.688 245.72 576.779 244.76 574.009 243.464Z" fill="#263238" fill-rule="nonzero" opacity="1" stroke="none"/>
<path d="M585.477 217.476C585.476 217.475 582.897 224.315 578.31 235.258C577.449 237.309 575.162 241.23 574.009 243.464C576.779 244.76 579.688 245.72 582.61 246.884C583.193 243.973 585.477 243.042 585.477 239.361L586.911 239.361C586.943 238.766 587.611 237.895 587.627 237.309C586.862 234.496 587.144 231.526 586.911 228.418C586.334 225.936 585.477 222.682 585.477 221.579C585.477 219.39 585.477 217.476 585.477 217.476Z" fill="#263238" fill-rule="nonzero" opacity="1" stroke="none"/>
<path d="M554.657 333.056C552.603 333.274 550.965 334.193 548.923 334.424C511.638 376.963 447.55 419.301 356.118 436.326C356.118 436.326 501.447 407.497 636.366 391.872C633.937 391.616 631.628 391.663 629.199 390.504C622.318 388.316 613.142 385.856 606.263 383.665C590.208 377.1 576.018 368.615 566.842 357.677C564.192 355.149 564.672 351.043 562.541 348.102C559.237 343.448 556.287 338.333 554.657 333.056Z" fill="#2979ff" fill-rule="nonzero" opacity="1" stroke="none"/>
<path d="M753.913 336.476C751.96 342.148 748.71 346.955 744.595 351.521C743.148 353.415 743.371 355.796 741.728 357.677C730.26 368.619 716.071 379.294 702.307 383.665C698.709 385.136 695.001 384.66 691.556 385.717C727.949 383.281 759.871 383.595 788.317 385.717C820.604 388.432 837.772 392.556 837.772 392.556C837.772 392.556 793.636 371.697 759.647 337.159C757.648 336.933 755.923 336.689 753.913 336.476Z" fill="#2979ff" fill-rule="nonzero" opacity="1" stroke="none"/>
<path d="M843.506 439.061C837.071 439.503 835.872 438.212 822.721 441.797C818.465 442.957 812.55 446.265 807.669 447.952C800.385 451.173 792.823 453.579 784.733 458.211C773.263 464.78 759.647 471.342 748.179 480.096C734.422 486.666 723.236 497.33 709.474 506.084C684.244 525.781 656.722 547.939 629.199 567.636C615.434 578.579 601.389 587.606 587.627 596.36C580.75 600.738 573.722 604.977 566.842 609.354C559.962 613.73 553.653 615.919 546.773 620.296C533.012 629.05 518.963 633.017 505.201 637.394C491.439 641.77 477.965 643.96 466.497 648.337C455.029 650.525 443.418 650.935 434.243 653.124C425.068 655.311 413.171 655.176 406.29 655.176C397.115 655.176 390.808 655.176 386.221 655.176C386.22 666.117 388.085 681.438 392.672 698.946C397.261 698.947 402.276 696.894 409.157 696.894C416.037 694.706 424.925 694.295 436.393 692.107C445.564 689.915 459.186 688.277 472.948 683.9C486.712 679.524 500.757 674.735 514.519 668.17C528.278 661.601 544.479 655.039 558.241 646.285C565.12 641.911 571.429 637.668 578.31 633.291C585.187 628.914 592.214 622.622 599.095 618.245C612.859 607.302 626.905 596.36 640.667 585.417C645.252 578.848 651.848 574.064 656.435 569.687C661.026 576.256 668.333 581.04 672.92 585.417C686.679 596.36 700.013 607.302 713.775 618.245C720.656 622.621 727.68 628.914 734.561 633.291C741.442 637.665 748.465 641.908 755.346 646.285C769.105 655.038 785.306 661.604 799.068 668.17C812.826 674.739 826.161 679.523 839.923 683.9C851.392 688.275 865.009 689.918 876.477 692.107C883.357 694.294 890.525 694.842 895.112 694.842C902.302 682.212 910.471 665.948 915.898 657.227C916.407 657.151 916.824 657.305 917.331 657.227C917.655 656.704 917.725 655.689 918.048 655.176C908.873 652.99 899.986 655.312 890.812 653.124C881.639 653.124 870.026 650.525 858.558 648.337C847.09 643.961 832.898 641.771 819.137 637.394C805.378 630.828 792.044 626.862 778.282 620.296C771.401 615.921 764.377 613.731 757.497 609.354C750.615 604.976 743.592 600.737 736.711 596.36C722.952 587.606 709.618 576.39 695.856 567.636C688.974 563.26 683.958 561.07 679.371 556.693C695.427 543.564 709.331 530.158 723.093 517.027C734.561 506.081 746.029 495.689 757.497 486.935C766.672 478.184 778.282 468.88 789.75 462.314C798.924 455.745 809.962 451.645 819.137 447.268C827.778 443.147 836.781 441.13 843.506 439.061Z" fill="#2979ff" fill-rule="nonzero" opacity="1" stroke="none"/>
</g>
</g>
</svg>
